<svg xmlns="http://www.w3.org/2000/svg" width="24" height="24" viewBox="0 0 24 24" fill="none">
    <path fill-rule="evenodd" clip-rule="evenodd" d="M10.232 12.0003L4.04483 5.81308C3.55667 5.32493 3.55667 4.53347 4.04483 4.04532C4.53298 3.55716 5.32444 3.55716 5.81259 4.04532L11.9998 10.2325L18.187 4.04532C18.6751 3.55716 19.4666 3.55716 19.9547 4.04532C20.4429 4.53347 20.4429 5.32493 19.9547 5.81308L13.7675 12.0003L19.9547 18.1875C20.4429 18.6756 20.4429 19.4671 19.9547 19.9552C19.4666 20.4434 18.6751 20.4434 18.187 19.9552L11.9998 13.768L5.81259 19.9552C5.32444 20.4434 4.53298 20.4434 4.04483 19.9552C3.55667 19.4671 3.55667 18.6756 4.04483 18.1875L10.232 12.0003Z" fill="#00000080" fill-opacity="0.5"/>
</svg>