<svg xmlns="http://www.w3.org/2000/svg" width="24" height="24" viewBox="0 0 24 24" fill="none">
    <path d="M6 10L6 8C6 4.69 7 2 12 2C17 2 18 4.69 18 8L18 10" stroke="#AAAFBC" stroke-width="1.5" stroke-linecap="round" stroke-linejoin="round"/>
    <path d="M17 22L7 22C3 22 2 21 2 17L2 15C2 11 3 10 7 10L17 10C21 10 22 11 22 15L22 17C22 21 21 22 17 22Z" stroke="#AAAFBC" stroke-width="1.5" stroke-linecap="round" stroke-linejoin="round"/>
    <path d="M15.9965 16L16.0054 16" stroke="#AAAFBC" stroke-width="2" stroke-linecap="round" stroke-linejoin="round"/>
    <path d="M11.9955 16L12.0045 16" stroke="#AAAFBC" stroke-width="2" stroke-linecap="round" stroke-linejoin="round"/>
    <path d="M7.99451 16L8.00349 16" stroke="#AAAFBC" stroke-width="2" stroke-linecap="round" stroke-linejoin="round"/>
</svg>