<svg xmlns="http://www.w3.org/2000/svg" width="24" height="24" viewBox="0 0 24 24" fill="none">
    <path d="M12 16.3298C14.3 16.3298 16.17 14.4598 16.17 12.1598C16.17 9.85984 14.3 7.98984 12 7.98984C9.7 7.98984 7.83 9.85984 7.83 12.1598C7.83 14.4598 9.7 16.3298 12 16.3298Z" stroke="#AAAFBC" stroke-width="1.5" stroke-linecap="round" stroke-linejoin="round"/>
    <path d="M12 20.2697C15.53 20.2697 18.82 18.1897 21.11 14.5897C22.01 13.1797 22.01 10.8097 21.11 9.39969C18.82 5.79969 15.53 3.71969 12 3.71969C8.47 3.71969 5.18 5.79969 2.89 9.39969C1.99 10.8097 1.99 13.1797 2.89 14.5897C5.18 18.1897 8.47 20.2697 12 20.2697Z" stroke="#AAAFBC" stroke-width="1.5" stroke-linecap="round" stroke-linejoin="round"/>
</svg>